<svg width="349" height="118" fill="none" xmlns="http://www.w3.org/2000/svg"><path d="m197.264 116.349 10.4-10.318c.9-.901.9-2.404 0-3.406l-10.5-10.518c-.9-.901-2.4-.901-3.3 0l-1.6 1.603c-.9.902-.9 2.404 0 3.306l3.5 3.406c.2.1 0 .4-.2.4l-19.7-.1c-1.3 0-2 1.603-1 2.504l2.5 2.505c1.2 1.202 2.8 1.903 4.5 1.903h13.8c.2 0 .3.3.2.401l-3.4 3.405a2.24 2.24 0 0 0 0 3.206l1.6 1.603c.9 1.001 2.3 1.001 3.2.1Z" fill="#F7A700"/><path d="m129.464 103.126 9.9-9.316c.9-.801.9-2.204 0-3.005l-9.9-9.516c-.9-.802-2.3-.802-3.1 0l-1.5 1.402a2.01 2.01 0 0 0 0 3.005l3.3 3.106c.1.1 0 .4-.2.4l-18.6-.1c-1.2 0-1.9 1.403-1 2.204l2.4 2.304c1.1 1.102 2.6 1.703 4.2 1.703h13c.2 0 .3.2.2.4l-3.2 3.006c-.9.801-.9 2.103 0 2.905l1.6 1.502c.7.802 2 .802 2.9 0Z" fill="#6E74B6"/><path d="m327.264 71.372 20.3-20.635c1.8-1.803 1.8-4.809 0-6.712l-20.5-21.036a4.581 4.581 0 0 0-6.5 0l-3.1 3.106c-1.8 1.803-1.8 4.808.1 6.711l6.9 6.912c.3.3.1.801-.3.801l-38.4-.1c-2.5 0-3.8 3.105-2 5.009l4.9 5.008c2.3 2.404 5.4 3.706 8.7 3.706l26.8.1c.4 0 .6.502.3.802l-6.7 6.712c-1.8 1.803-1.8 4.708 0 6.41l3.2 3.306c1.7 1.603 4.6 1.603 6.3-.1Z" fill="#D60B52"/><path d="m269.864 36.813 12.3-12.522c1.1-1.101 1.1-2.904 0-4.107l-12.4-12.821c-1.1-1.102-2.8-1.102-3.9 0l-1.9 1.903a2.845 2.845 0 0 0 0 4.007l4.2 4.207c.2.2.1.5-.2.5l-23.3-.1c-1.5 0-2.3 1.904-1.2 3.006l3 3.105a7.486 7.486 0 0 0 5.3 2.204l16.2.1c.2 0 .4.3.2.5l-4.1 4.108c-1.1 1.102-1.1 2.805 0 3.907l1.9 2.003c1.1 1.102 2.8 1.102 3.9 0Z" fill="#E94273"/><path d="m287.464 80.087 8.9-8.915c.8-.802.8-2.104 0-2.905l-9-9.016c-.8-.801-2.1-.801-2.8 0l-1.4 1.403c-.8.8-.8 2.103 0 2.904l3 3.006c.1.1 0 .3-.1.3l-16.9-.1c-1.1 0-1.7 1.302-.9 2.104l2.1 2.203c1 1.002 2.4 1.603 3.8 1.603h11.8c.2 0 .3.2.1.3l-2.9 2.906c-.8.801-.8 2.003 0 2.804l1.4 1.403c.9.801 2.1.801 2.9 0Z" fill="#F7A600"/><path d="m259.964 64.56 9.9-9.716c.9-.902.9-2.304 0-3.206l-9.9-9.917c-.9-.901-2.3-.901-3.1 0l-1.5 1.503c-.9.901-.9 2.304 0 3.105l3.3 3.206c.1.1 0 .4-.2.4l-18.6-.1c-1.2 0-1.9 1.503-1 2.304l2.4 2.404c1.1 1.102 2.6 1.703 4.2 1.703h13c.2 0 .3.2.2.4l-3.2 3.206a2.01 2.01 0 0 0 0 3.006l1.6 1.502c.7 1.002 2 1.002 2.9.2ZM225.064 48.132l15.4-15.426a3.511 3.511 0 0 0 0-5.009l-15.5-15.626c-1.4-1.403-3.6-1.403-4.9 0l-2.3 2.303a3.511 3.511 0 0 0 0 5.01l5.2 5.108c.2.2.1.6-.2.6l-29.1-.1c-1.9 0-2.9 2.305-1.5 3.707l3.7 3.706c1.7 1.803 4.1 2.705 6.6 2.805l20.3.1c.3 0 .5.401.2.601l-5.1 5.009c-1.3 1.302-1.3 3.506 0 4.808l2.4 2.404c1.3 1.303 3.4 1.303 4.8 0Z" fill="#00A7A7"/><path d="m202.664 71.372 12-11.72c1.1-1.102 1.1-2.805 0-3.806l-12.1-11.92c-1.1-1.003-2.8-1.003-3.8 0l-1.8 1.802c-1.1 1.002-1.1 2.805 0 3.807l4.1 3.906c.2.2.1.501-.2.501l-22.7-.1c-1.5 0-2.3 1.803-1.2 2.805l2.9 2.905c1.4 1.302 3.2 2.103 5.1 2.103l15.8.1c.2 0 .4.301.2.501l-3.9 3.807c-1 1.002-1 2.705 0 3.706l1.9 1.903c1 .802 2.7.802 3.7-.3Z" fill="#D60B52"/><path d="m177.164 93.81 13.9-13.823c1.2-1.202 1.2-3.206 0-4.508l-14-14.024c-1.2-1.202-3.2-1.202-4.4 0l-2.1 2.104c-1.2 1.202-1.2 3.205 0 4.407l4.7 4.608c.2.2.1.5-.2.5h-26.1c-1.7 0-2.6 2.105-1.4 3.306l3.3 3.306c1.6 1.603 3.7 2.504 5.9 2.504l18.3.1c.3 0 .4.301.2.501l-4.6 4.508a3.027 3.027 0 0 0 0 4.307l2.2 2.204a3.014 3.014 0 0 0 4.3 0Z" fill="#6E74B6"/><path d="m126.664 72.474 11.1-11.32c1-1.001 1-2.704 0-3.706l-11.2-11.52c-1-1.001-2.6-1.001-3.5 0l-1.7 1.703c-1 1.002-1 2.705 0 3.707l3.8 3.806c.2.2.1.401-.2.401l-20.9-.1c-1.4 0-2.1 1.703-1.1 2.704l2.7 2.805c1.3 1.302 3 2.004 4.7 2.004l14.6.1c.2 0 .3.3.2.4l-3.6 3.707c-1 1.001-1 2.604 0 3.506l1.7 1.803c.9.901 2.4.901 3.4 0Z" fill="#00A7A7"/><path d="m113.464 45.127 8-7.713c.7-.701.7-1.803 0-2.504l-8.1-7.814c-.7-.701-1.8-.701-2.6 0l-1.2 1.202c-.7.702-.7 1.803 0 2.505l2.7 2.604c.1.1 0 .3-.1.3l-15.1-.1c-1 0-1.5 1.202-.8 1.803l1.9 1.904c.9.901 2.1 1.402 3.4 1.402h10.6c.2 0 .2.2.1.3l-2.6 2.505c-.7.701-.7 1.703 0 2.404l1.3 1.202c.7.701 1.8.701 2.5 0Z" fill="#F7A700"/><path d="m95.264 30.502 9.5-9.316c.9-.801.9-2.204 0-3.005l-9.6-9.516c-.8-.802-2.2-.802-3 0l-1.4 1.402c-.8.801-.8 2.204 0 3.005l3.2 3.106c.1.1 0 .4-.1.4l-18-.1c-1.2 0-1.8 1.402-1 2.204l2.3 2.304c1.1 1.102 2.5 1.703 4.1 1.703h12.6c.2 0 .3.2.1.4l-3.1 3.006c-.8.8-.8 2.103 0 2.905l1.5 1.502c.8.801 2.1.801 2.9 0Z" fill="#D60B52"/><path d="m85.264 64.46 10.5-10.518c.9-.901.9-2.504 0-3.406l-10.5-10.718c-.9-.901-2.4-.901-3.3 0l-1.6 1.603c-.9.901-.9 2.504 0 3.406l3.6 3.506c.2.1 0 .4-.2.4l-19.8-.1c-1.3 0-2 1.603-1 2.504l2.5 2.605c1.2 1.202 2.8 1.903 4.5 1.903h13.8c.2 0 .3.3.2.4l-3.4 3.407c-.9.901-.9 2.404 0 3.305l1.6 1.703c.8.902 2.2.902 3.1 0Z" fill="#E94273"/><path d="m61.664 38.416 11.1-11.32c1-1.002 1-2.704 0-3.706l-11.2-11.52c-1-1.002-2.6-1.002-3.5 0l-1.7 1.703c-1 1.002-1 2.705 0 3.706l3.8 3.807c.2.2 0 .4-.2.4l-20.9-.1c-1.4-.1-2.1 1.703-1.1 2.705l2.7 2.805c1.3 1.302 3 2.003 4.7 2.003h14.6c.2 0 .3.3.2.401l-3.6 3.706c-1 1.002-1 2.605 0 3.506l1.7 1.803c.9 1.002 2.4 1.002 3.4.1Z" fill="#6E74B6"/><path d="m39.564 17.58 7.4-7.312c.7-.702.7-1.703 0-2.405l-7.4-7.412c-.6-.601-1.7-.601-2.4 0l-1.1 1.102c-.7.7-.6 1.703 0 2.304l2.5 2.404c.1.1 0 .3-.1.3h-14c-.9 0-1.4 1.102-.7 1.803l1.8 1.803c.8.802 2 1.303 3.2 1.303h9.7c.1 0 .2.2.1.3l-2.4 2.404c-.6.601-.6 1.603 0 2.304l1.2 1.202c.6.601 1.6.601 2.2-.1Z" fill="#F7A700"/><path d="m20.764 40.82 9.5-9.516c.9-.902.9-2.204 0-3.106l-9.6-9.716c-.8-.802-2.2-.802-3 0l-1.4 1.502c-.8.902-.8 2.204 0 3.105l3.2 3.206c.1.1 0 .4-.1.4l-18-.1c-1.2 0-1.8 1.403-1 2.305l2.3 2.203c1.1 1.102 2.5 1.703 4.1 1.703h12.6c.2 0 .3.2.1.4l-3.1 3.106c-.8.802-.8 2.204 0 3.005l1.5 1.503c.8.801 2.1.801 2.9 0Z" fill="#D60B52"/><path d="m236.964 91.406 12.6-12.521c1.1-1.102 1.1-2.905 0-4.107l-12.7-12.722a2.833 2.833 0 0 0-4 0l-1.9 1.903a2.845 2.845 0 0 0 0 4.007l4.3 4.207c.2.2.1.501-.2.501l-23.8-.1c-1.6 0-2.4 1.903-1.3 3.005l3 3.105c1.4 1.403 3.4 2.204 5.4 2.204l16.7.1c.3 0 .4.3.2.501l-4.2 4.107c-1.1 1.102-1.1 2.805 0 3.907l2 2.003a2.807 2.807 0 0 0 3.9-.1Z" fill="#6E74B6"/></svg>
