<svg width="192" height="28" fill="none" xmlns="http://www.w3.org/2000/svg"><path d="M56.453 23a69.475 69.475 0 0 0-.696-1.944c-.24-.64-.472-1.296-.696-1.968h-7.008a72.82 72.82 0 0 1-.696 1.992L46.685 23h-3.144a283.193 283.193 0 0 1 1.776-4.92c.56-1.504 1.104-2.928 1.632-4.272.544-1.344 1.08-2.624 1.608-3.84a122.956 122.956 0 0 1 1.632-3.6h2.856a117.79 117.79 0 0 1 3.216 7.44 162.97 162.97 0 0 1 1.656 4.272 188.84 188.84 0 0 1 1.8 4.92h-3.264ZM51.557 9.584c-.368.848-.792 1.88-1.272 3.096a218.91 218.91 0 0 0-1.464 3.96h5.472a161.884 161.884 0 0 0-1.488-3.984 95.562 95.562 0 0 0-1.248-3.072Zm9.857-2.448 2.904-.48v3.792h4.464v2.424h-4.464v5.112c0 1.008.16 1.728.48 2.16.32.432.864.648 1.632.648.528 0 .992-.056 1.392-.168.416-.112.744-.216.984-.312l.48 2.304a9.838 9.838 0 0 1-1.32.432c-.544.16-1.184.24-1.92.24-.896 0-1.648-.12-2.256-.36-.592-.24-1.064-.584-1.416-1.032a4.24 4.24 0 0 1-.744-1.656c-.144-.656-.216-1.4-.216-2.232V7.136Zm9.269 9.648c0-1.104.16-2.072.48-2.904.336-.832.776-1.52 1.32-2.064a5.2 5.2 0 0 1 1.871-1.248 5.656 5.656 0 0 1 2.16-.432c1.729 0 3.073.536 4.032 1.608.976 1.072 1.464 2.672 1.464 4.8 0 .16-.008.344-.023.552 0 .192-.008.368-.024.528h-8.28c.08 1.008.431 1.792 1.055 2.352.64.544 1.56.816 2.76.816.704 0 1.344-.064 1.92-.192.592-.128 1.056-.264 1.392-.408l.385 2.376a5.36 5.36 0 0 1-.672.264c-.272.08-.593.152-.96.216a11.09 11.09 0 0 1-2.424.264c-1.105 0-2.064-.16-2.88-.48-.817-.336-1.489-.792-2.016-1.368a5.738 5.738 0 0 1-1.176-2.064 8.543 8.543 0 0 1-.384-2.616Zm8.423-1.296a3.7 3.7 0 0 0-.167-1.128 2.509 2.509 0 0 0-.504-.936 2.027 2.027 0 0 0-.793-.624c-.303-.16-.671-.24-1.103-.24-.448 0-.84.088-1.177.264-.335.16-.623.376-.863.648-.224.272-.4.584-.528.936a5.07 5.07 0 0 0-.264 1.08h5.4Zm5.984-4.632c.56-.16 1.287-.312 2.183-.456a18.83 18.83 0 0 1 2.977-.216c1.023 0 1.88.144 2.567.432.689.272 1.233.664 1.633 1.176.415.496.703 1.104.864 1.824.176.704.264 1.48.264 2.328V23h-2.904v-6.6c0-.672-.049-1.24-.145-1.704-.08-.48-.224-.864-.431-1.152a1.57 1.57 0 0 0-.817-.648c-.336-.144-.752-.216-1.248-.216-.368 0-.752.024-1.151.072-.4.048-.697.088-.889.12V23H85.09V10.856Zm16.319 5.832c0 1.28.304 2.288.912 3.024.608.72 1.448 1.08 2.52 1.08.464 0 .856-.016 1.176-.048.336-.048.608-.096.816-.144v-7.2c-.256-.176-.6-.336-1.032-.48a3.712 3.712 0 0 0-1.344-.24c-1.056 0-1.832.36-2.328 1.08-.48.72-.72 1.696-.72 2.928Zm8.328 5.928c-.576.176-1.304.336-2.184.48-.864.144-1.776.216-2.736.216-.992 0-1.88-.152-2.664-.456a5.752 5.752 0 0 1-2.016-1.296 6.14 6.14 0 0 1-1.272-2.064c-.288-.816-.432-1.728-.432-2.736 0-.992.12-1.888.36-2.688.255-.816.623-1.512 1.103-2.088a4.754 4.754 0 0 1 1.753-1.32c.688-.32 1.48-.48 2.376-.48.608 0 1.144.072 1.608.216.464.144.864.304 1.2.48V4.856l2.904-.48v18.24Zm6.616.384h-2.904V10.448h2.904V23Zm.312-16.224c0 .544-.176.976-.528 1.296-.352.32-.768.48-1.248.48-.496 0-.92-.16-1.272-.48-.352-.32-.528-.752-.528-1.296 0-.56.176-1 .528-1.32.352-.32.776-.48 1.272-.48.48 0 .896.16 1.248.48.352.32.528.76.528 1.32ZM127.21 16.4c0-1.312-.168-2.256-.504-2.832-.32-.592-.928-.888-1.824-.888-.32 0-.672.024-1.056.072-.384.048-.672.088-.864.12V23h-2.904V10.856c.56-.16 1.288-.312 2.184-.456a18.46 18.46 0 0 1 2.88-.216c.864 0 1.568.112 2.112.336.56.224 1.024.52 1.392.888a6.01 6.01 0 0 1 1.584-.792 7.344 7.344 0 0 1 1.056-.312c.384-.08.768-.12 1.152-.12.976 0 1.776.144 2.4.432.64.272 1.136.664 1.488 1.176.368.496.616 1.104.744 1.824.144.704.216 1.48.216 2.328V23h-2.904v-6.6c0-1.312-.16-2.256-.48-2.832-.32-.592-.936-.888-1.848-.888-.464 0-.904.08-1.32.24-.416.144-.728.288-.936.432.128.4.216.824.264 1.272.048.448.072.928.072 1.44V23h-2.904v-6.6Zm12.918.384c0-1.104.16-2.072.48-2.904.336-.832.776-1.52 1.32-2.064a5.2 5.2 0 0 1 1.872-1.248 5.656 5.656 0 0 1 2.16-.432c1.728 0 3.072.536 4.032 1.608.976 1.072 1.464 2.672 1.464 4.8 0 .16-.008.344-.024.552 0 .192-.008.368-.024.528h-8.28c.08 1.008.432 1.792 1.056 2.352.64.544 1.56.816 2.76.816.704 0 1.344-.064 1.92-.192.592-.128 1.056-.264 1.392-.408l.384 2.376a5.36 5.36 0 0 1-.672.264c-.272.08-.592.152-.96.216a11.09 11.09 0 0 1-2.424.264c-1.104 0-2.064-.16-2.88-.48-.816-.336-1.488-.792-2.016-1.368a5.738 5.738 0 0 1-1.176-2.064 8.543 8.543 0 0 1-.384-2.616Zm8.424-1.296a3.7 3.7 0 0 0-.168-1.128 2.509 2.509 0 0 0-.504-.936 2.027 2.027 0 0 0-.792-.624c-.304-.16-.672-.24-1.104-.24-.448 0-.84.088-1.176.264-.336.16-.624.376-.864.648-.224.272-.4.584-.528.936a5.07 5.07 0 0 0-.264 1.08h5.4Zm5.983-4.632c.56-.16 1.288-.312 2.184-.456a18.83 18.83 0 0 1 2.976-.216c1.024 0 1.88.144 2.568.432.688.272 1.232.664 1.632 1.176.416.496.704 1.104.864 1.824.176.704.264 1.48.264 2.328V23h-2.904v-6.6c0-.672-.048-1.24-.144-1.704-.08-.48-.224-.864-.432-1.152a1.57 1.57 0 0 0-.816-.648c-.336-.144-.752-.216-1.248-.216-.368 0-.752.024-1.152.072-.4.048-.696.088-.888.12V23h-2.904V10.856Zm13.895-3.72 2.904-.48v3.792h4.464v2.424h-4.464v5.112c0 1.008.16 1.728.48 2.16.32.432.864.648 1.632.648.528 0 .992-.056 1.392-.168.416-.112.744-.216.984-.312l.48 2.304a9.838 9.838 0 0 1-1.32.432c-.544.16-1.184.24-1.92.24-.896 0-1.648-.12-2.256-.36-.592-.24-1.064-.584-1.416-1.032a4.24 4.24 0 0 1-.744-1.656c-.144-.656-.216-1.4-.216-2.232V7.136Zm21.246 9.576c0 .992-.144 1.896-.432 2.712-.288.816-.696 1.512-1.224 2.088a5.477 5.477 0 0 1-1.92 1.344c-.736.32-1.552.48-2.448.48-.896 0-1.712-.16-2.448-.48a5.531 5.531 0 0 1-1.896-1.344c-.528-.576-.944-1.272-1.248-2.088-.288-.816-.432-1.72-.432-2.712 0-.992.144-1.888.432-2.688.304-.816.72-1.512 1.248-2.088a5.498 5.498 0 0 1 1.92-1.32c.736-.32 1.544-.48 2.424-.48.88 0 1.688.16 2.424.48a5.22 5.22 0 0 1 1.92 1.32c.528.576.936 1.272 1.224 2.088.304.8.456 1.696.456 2.688Zm-2.976 0c0-1.248-.272-2.232-.816-2.952-.528-.736-1.272-1.104-2.232-1.104-.96 0-1.712.368-2.256 1.104-.528.72-.792 1.704-.792 2.952 0 1.264.264 2.264.792 3 .544.736 1.296 1.104 2.256 1.104.96 0 1.704-.368 2.232-1.104.544-.736.816-1.736.816-3Z" fill="#4A4A4A"/><path d="m22.405 25.374 10.313-9.704a2.094 2.094 0 0 0 0-3.13L22.405 2.625c-.937-.835-2.396-.835-3.229 0l-1.562 1.461a2.094 2.094 0 0 0 0 3.13l3.437 3.235c.104.104 0 .418-.208.418l-19.376-.105c-1.25 0-1.979 1.461-1.041 2.296l2.5 2.4c1.146 1.148 2.708 1.774 4.375 1.774h13.542c.208 0 .312.209.208.417l-3.333 3.13c-.938.835-.938 2.192 0 3.027l1.666 1.565c.73.835 2.084.835 3.021 0Z" fill="#6E74B6"/></svg>
