<svg width="38" height="36" fill="none" xmlns="http://www.w3.org/2000/svg"><path d="M30 0H10a8 8 0 0 0-8 8v20a8 8 0 0 0 8 8h20a8 8 0 0 0 8-8V8a8 8 0 0 0-8-8Z" fill="#6E74B6"/><path d="M16.904 14.736c0 .608-.12 1.192-.36 1.752a8.401 8.401 0 0 1-.936 1.632 13.91 13.91 0 0 1-1.296 1.488c-.48.48-.952.936-1.416 1.368-.24.224-.504.48-.792.768-.272.272-.536.552-.792.84-.256.288-.488.56-.696.816-.192.24-.312.44-.36.6h7.152v3H6.32a3.869 3.869 0 0 1-.048-.672v-.576c0-.768.12-1.472.36-2.112.256-.64.584-1.232.984-1.776.4-.56.848-1.08 1.344-1.56a131.7 131.7 0 0 0 1.512-1.44l1.08-1.032c.336-.336.632-.656.888-.96.256-.32.456-.632.6-.936.144-.32.216-.64.216-.96 0-.704-.2-1.2-.6-1.488-.4-.288-.896-.432-1.488-.432-.432 0-.84.072-1.224.216a5.53 5.53 0 0 0-1.032.48c-.304.176-.568.36-.792.552-.224.176-.392.32-.504.432L5.84 12.24a8.896 8.896 0 0 1 2.448-1.608 7.18 7.18 0 0 1 3.024-.648c.976 0 1.816.112 2.52.336.704.224 1.28.544 1.728.96.464.4.8.896 1.008 1.488.224.576.336 1.232.336 1.968Zm9.2 12.48c-.911 0-1.823-.032-2.735-.096a18.144 18.144 0 0 1-2.808-.384V10.608a22.121 22.121 0 0 1 2.52-.312c.912-.08 1.76-.12 2.544-.12 1.056 0 2.024.08 2.904.24.896.144 1.664.4 2.304.768.64.368 1.136.856 1.488 1.464.368.592.552 1.328.552 2.208 0 1.328-.64 2.376-1.92 3.144 1.056.4 1.776.944 2.16 1.632.384.688.576 1.464.576 2.328 0 1.744-.64 3.056-1.92 3.936-1.264.88-3.152 1.32-5.664 1.32Zm-1.895-7.464v4.296c.272.032.568.056.888.072.32.016.672.024 1.056.024 1.12 0 2.024-.16 2.712-.48.688-.32 1.032-.912 1.032-1.776 0-.768-.288-1.312-.864-1.632-.576-.336-1.4-.504-2.472-.504h-2.352Zm0-2.856h1.824c1.152 0 1.976-.144 2.472-.432.496-.304.744-.784.744-1.44 0-.672-.256-1.144-.768-1.416s-1.264-.408-2.256-.408c-.32 0-.664.008-1.032.024-.368 0-.696.016-.984.048v3.624Z" fill="#fff"/></svg>