<svg width="36" height="36" fill="none" xmlns="http://www.w3.org/2000/svg"><path d="M28 0H8a8 8 0 0 0-8 8v20a8 8 0 0 0 8 8h20a8 8 0 0 0 8-8V8a8 8 0 0 0-8-8Z" fill="#F7A700"/><path d="M14.904 14.736c0 .608-.12 1.192-.36 1.752a8.401 8.401 0 0 1-.936 1.632 13.91 13.91 0 0 1-1.296 1.488c-.48.48-.952.936-1.416 1.368-.24.224-.504.48-.792.768-.272.272-.536.552-.792.84-.256.288-.488.56-.696.816-.192.24-.312.44-.36.6h7.152v3H4.32a3.869 3.869 0 0 1-.048-.672v-.576c0-.768.12-1.472.36-2.112.256-.64.584-1.232.984-1.776.4-.56.848-1.08 1.344-1.56a131.7 131.7 0 0 0 1.512-1.44l1.08-1.032c.336-.336.632-.656.888-.96.256-.32.456-.632.6-.936.144-.32.216-.64.216-.96 0-.704-.2-1.2-.6-1.488-.4-.288-.896-.432-1.488-.432-.432 0-.84.072-1.224.216a5.53 5.53 0 0 0-1.032.48c-.304.176-.568.36-.792.552-.224.176-.392.32-.504.432L3.84 12.24a8.896 8.896 0 0 1 2.448-1.608 7.18 7.18 0 0 1 3.024-.648c.976 0 1.816.112 2.52.336.704.224 1.28.544 1.728.96.464.4.8.896 1.008 1.488.224.576.336 1.232.336 1.968Zm11.24 12.6c-2.703 0-4.767-.752-6.191-2.256-1.408-1.504-2.112-3.64-2.112-6.408 0-1.376.216-2.6.648-3.672.432-1.088 1.024-2 1.776-2.736a7.347 7.347 0 0 1 2.688-1.704c1.04-.384 2.168-.576 3.384-.576.704 0 1.344.056 1.92.168.576.096 1.08.216 1.512.36.432.128.792.264 1.08.408.288.144.496.256.624.336l-1.08 3.024a8.992 8.992 0 0 0-1.8-.696c-.672-.192-1.44-.288-2.304-.288-.576 0-1.144.096-1.704.288a3.882 3.882 0 0 0-1.464.936c-.416.416-.752.96-1.008 1.632-.256.672-.384 1.488-.384 2.448 0 .768.08 1.488.24 2.16.176.656.448 1.224.816 1.704.384.48.88.864 1.488 1.152.608.272 1.344.408 2.208.408.544 0 1.032-.032 1.464-.096.432-.064.816-.136 1.152-.216.336-.096.632-.2.888-.312.256-.112.488-.216.696-.312l1.032 3c-.528.32-1.272.608-2.232.864-.96.256-2.072.384-3.336.384Z" fill="#fff"/></svg>