<svg width="36" height="36" fill="none" xmlns="http://www.w3.org/2000/svg"><path d="M28 0H8a8 8 0 0 0-8 8v20a8 8 0 0 0 8 8h20a8 8 0 0 0 8-8V8a8 8 0 0 0-8-8Z" fill="#00A7A7"/><path d="M16.792 10.176c2.496 0 4.408.448 5.736 1.344 1.328.88 1.992 2.256 1.992 4.128 0 1.168-.272 2.12-.816 2.856-.528.72-1.296 1.288-2.304 1.704.336.416.688.896 1.056 1.44.368.528.728 1.088 1.08 1.68.368.576.72 1.184 1.056 1.824.336.624.648 1.24.936 1.848h-4.2c-.304-.544-.616-1.096-.936-1.656a27.287 27.287 0 0 0-.96-1.632c-.32-.528-.64-1.024-.96-1.488-.32-.48-.64-.912-.96-1.296h-1.848V27H11.92V10.608c.816-.16 1.656-.272 2.52-.336.88-.064 1.664-.096 2.352-.096Zm.216 3.192c-.272 0-.52.008-.744.024l-.6.048v4.512h1.056c1.408 0 2.416-.176 3.024-.528.608-.352.912-.952.912-1.8 0-.816-.312-1.392-.936-1.728-.608-.352-1.512-.528-2.712-.528Z" fill="#fff"/></svg>