<svg width="71" height="64" fill="none" xmlns="http://www.w3.org/2000/svg"><path d="M8.01 38.047H.816a.508.508 0 0 0-.507.507v24.939c0 .28.228.507.507.507h2.536c.28 0 .507-.228.507-.507v-9.81h4.15a3.593 3.593 0 0 0 3.59-3.59v-8.466a3.584 3.584 0 0 0-3.59-3.58Zm-.042 9.83c0 .984-.797 1.77-1.77 1.77H4.263v-7.895h1.935c.984 0 1.77.796 1.77 1.77v4.356ZM21.1 38.472a.5.5 0 0 0-.497-.424h-4.056a.5.5 0 0 0-.497.424L12.024 63.41c-.051.31.187.58.497.58h2.515a.502.502 0 0 0 .496-.435l.58-4.16h4.926l.579 4.16a.502.502 0 0 0 .497.434h2.514c.31 0 .549-.279.497-.579L21.1 38.471Zm-2.525 16.981h-1.822l1.811-12.448 1.811 12.448h-1.8Zm30.889-16.98a.5.5 0 0 0-.497-.425H44.91a.5.5 0 0 0-.496.424L40.388 63.41c-.051.31.187.58.497.58H43.4a.502.502 0 0 0 .496-.435l.58-4.16H49.4l.58 4.16a.502.502 0 0 0 .497.434h2.514c.31 0 .549-.279.497-.579l-4.025-24.939Zm-2.525 16.98h-1.811l1.81-12.448 1.812 12.448h-1.811Zm-8.186-7.823v-6.188a3.396 3.396 0 0 0-3.394-3.394h-7.844a.508.508 0 0 0-.507.507v24.939c0 .28.228.507.507.507h2.536c.28 0 .507-.228.507-.507v-9.81h2.639c.838 0 1.52.683 1.52 1.521v8.289c0 .28.228.507.508.507h3.021c.28 0 .507-.228.507-.507v-9.81c0-1.47-1.19-2.66-2.66-2.66h-.734a3.396 3.396 0 0 0 3.394-3.394Zm-4.025.104a1.917 1.917 0 0 1-1.914 1.914h-2.018v-8.361h2.018c1.055 0 1.914.859 1.914 1.914v4.533Zm32.43-.104v-6.188a3.396 3.396 0 0 0-3.393-3.394H55.92a.508.508 0 0 0-.507.507v24.939c0 .28.227.507.507.507h2.535c.28 0 .507-.228.507-.507v-9.81h2.639c.838 0 1.521.683 1.521 1.521v8.289c0 .28.228.507.507.507h3.022c.28 0 .507-.228.507-.507v-9.81c0-1.47-1.19-2.66-2.66-2.66h-.734a3.396 3.396 0 0 0 3.394-3.394Zm-4.035.104a1.917 1.917 0 0 1-1.914 1.914H59.19v-8.361h2.018c1.055 0 1.914.859 1.914 1.914v4.533ZM0 25.888v4.377a4.717 4.717 0 0 0 4.719 4.719h2.514a4.942 4.942 0 0 0 4.936-4.936v-2.525c0-2.732-1.19-5.33-3.26-7.109l-2.462-2.132a5.593 5.593 0 0 1-1.935-4.232v-.714a1.698 1.698 0 0 1 3.394 0v2.773c0 .28.228.507.507.507h3.26c.279 0 .507-.227.507-.507v-2.846a5.12 5.12 0 0 0-5.123-5.122H5.122A5.12 5.12 0 0 0 0 13.264v1.635A8.51 8.51 0 0 0 3.135 21.5l2.763 2.256a5.474 5.474 0 0 1 2.008 4.222v1.46a1.79 1.79 0 0 1-1.79 1.79h-.238a1.806 1.806 0 0 1-1.811-1.811v-3.519a.497.497 0 0 0-.497-.496H.507a.484.484 0 0 0-.507.486Zm14.301-17.24v25.829c0 .28.228.507.507.507h9.386c.28 0 .507-.228.507-.507v-3.384a.508.508 0 0 0-.507-.507h-6.147v-7.492h4.812c.28 0 .507-.228.507-.507v-3.342a.508.508 0 0 0-.507-.507h-4.812v-6.53h6.147c.28 0 .507-.228.507-.507V8.638a.508.508 0 0 0-.507-.507h-9.386c-.28.02-.507.248-.507.517Zm28.705-.496h-4.811a.556.556 0 0 0-.549.465l-2.535 15.978-2.525-15.978a.555.555 0 0 0-.548-.465h-4.812a.556.556 0 0 0-.56.558v25.84c0 .237.197.444.446.444h2.742a.448.448 0 0 0 .445-.445V14.433l3.632 19.703a.444.444 0 0 0 .435.362h1.49a.444.444 0 0 0 .434-.362l3.643-19.703v20.106c0 .238.197.445.445.445h2.742a.448.448 0 0 0 .445-.445V8.7c0-.3-.248-.548-.559-.548Z" fill="#4A4A4A"/><path d="M69.88 12.146 59.305.504a1.56 1.56 0 0 0-2.298 0L46.432 12.146a1.821 1.821 0 0 0 .03 2.483l2.143 2.236a1.818 1.818 0 0 0 2.66-.042l3.838-4.232v20.975c.021 1.046 1.335 1.511 2.05.756l2.824-2.939a4.3 4.3 0 0 0 1.2-2.98V12.59l3.84 4.232a1.827 1.827 0 0 0 2.66.042l2.141-2.235c.683-.683.704-1.77.062-2.484Z" fill="#D60B52"/></svg>